<svg width="90" height="90" viewBox="0 0 90 90" fill="none" xmlns="http://www.w3.org/2000/svg">
<g filter="url(#filter0_d_2_1016)">
<rect x="20" y="10" width="50" height="50" rx="25" fill="#EED535"/>
<g clip-path="url(#clip0_2_1016)">
<path fill-rule="evenodd" clip-rule="evenodd" d="M39.9253 22.5286C39.9205 22.5146 39.9309 22.5 39.9457 22.5H48.7559C48.7653 22.5 48.7737 22.5062 48.7765 22.5152L52.8231 35.5892C52.8274 35.6031 52.817 35.6171 52.8025 35.6171H46.9372C46.9301 35.6171 46.9249 35.6239 46.9269 35.6308L50.2908 47.4724C50.2973 47.4954 50.2672 47.5104 50.2529 47.4913L37.1803 30.1068C37.1696 30.0926 37.1797 30.0723 37.1975 30.0723H42.5207C42.5281 30.0723 42.5333 30.065 42.5309 30.058L39.9253 22.5286Z" fill="white"/>
</g>
</g>
<defs>
<filter id="filter0_d_2_1016" x="0" y="0" width="90" height="90" filterUnits="userSpaceOnUse" color-interpolation-filters="sRGB">
<feFlood flood-opacity="0" result="BackgroundImageFix"/>
<feColorMatrix in="SourceAlpha" type="matrix" values="0 0 0 0 0 0 0 0 0 0 0 0 0 0 0 0 0 0 127 0" result="hardAlpha"/>
<feOffset dy="10"/>
<feGaussianBlur stdDeviation="10"/>
<feColorMatrix type="matrix" values="0 0 0 0 0.933333 0 0 0 0 0.835294 0 0 0 0 0.207843 0 0 0 0.3 0"/>
<feBlend mode="normal" in2="BackgroundImageFix" result="effect1_dropShadow_2_1016"/>
<feBlend mode="normal" in="SourceGraphic" in2="effect1_dropShadow_2_1016" result="shape"/>
</filter>
<clipPath id="clip0_2_1016">
<rect width="25" height="25" fill="white" transform="translate(32.5 22.5)"/>
</clipPath>
</defs>
</svg>
