<svg width="90" height="90" viewBox="0 0 90 90" fill="none" xmlns="http://www.w3.org/2000/svg">
<g filter="url(#filter0_d_2_1034)">
<rect x="20" y="10" width="50" height="50" rx="25" fill="#62B957"/>
<g clip-path="url(#clip0_2_1034)">
<path fill-rule="evenodd" clip-rule="evenodd" d="M37.1492 44.3085C37.0601 44.2247 36.972 44.1392 36.885 44.0522C32.2879 39.4551 32.2879 32.0017 36.885 27.4047C41.482 22.8075 56.1302 22.5 56.1302 22.5C56.1302 22.5 58.1296 39.4551 53.5325 44.0522C49.4497 48.135 43.114 48.5917 38.5271 45.4224L42.223 40.8869L48.1313 39.6113L43.3084 39.1291L46.3734 36.0084L49.8623 35.2441L47.1035 34.427L49.8623 29.4502L45.9382 33.8518L44.4228 31.7134L44.9562 35.2441L42.223 38.3253L40.956 34.427V39.6113L37.1492 44.3085Z" fill="white"/>
</g>
</g>
<defs>
<filter id="filter0_d_2_1034" x="0" y="0" width="90" height="90" filterUnits="userSpaceOnUse" color-interpolation-filters="sRGB">
<feFlood flood-opacity="0" result="BackgroundImageFix"/>
<feColorMatrix in="SourceAlpha" type="matrix" values="0 0 0 0 0 0 0 0 0 0 0 0 0 0 0 0 0 0 127 0" result="hardAlpha"/>
<feOffset dy="10"/>
<feGaussianBlur stdDeviation="10"/>
<feColorMatrix type="matrix" values="0 0 0 0 0.384314 0 0 0 0 0.72549 0 0 0 0 0.341176 0 0 0 0.3 0"/>
<feBlend mode="normal" in2="BackgroundImageFix" result="effect1_dropShadow_2_1034"/>
<feBlend mode="normal" in="SourceGraphic" in2="effect1_dropShadow_2_1034" result="shape"/>
</filter>
<clipPath id="clip0_2_1034">
<rect width="25" height="25" fill="white" transform="translate(32.5 22.5)"/>
</clipPath>
</defs>
</svg>
