<svg width="90" height="90" viewBox="0 0 90 90" fill="none" xmlns="http://www.w3.org/2000/svg">
<g filter="url(#filter0_d_2_1058)">
<rect x="20" y="10" width="50" height="50" rx="25" fill="#4A90DA"/>
<g clip-path="url(#clip0_2_1058)">
<path fill-rule="evenodd" clip-rule="evenodd" d="M53.11 39.4204C53.11 43.8827 49.4791 47.5 45 47.5C40.5209 47.5 36.89 43.8827 36.89 39.4204C36.89 35.0806 44.5613 23.1615 44.982 22.5111C44.9917 22.4963 45.0084 22.4963 45.018 22.5111C45.4387 23.1615 53.11 35.0806 53.11 39.4204ZM43.6481 44.9097C39.5327 44.0093 40.2369 39.4505 40.2369 39.4505C40.2369 39.4505 41.3607 42.2024 44.0878 43.0939C46.8149 43.9853 50.1105 42.6779 50.1105 42.6779C50.1105 42.6779 47.7635 45.8102 43.6481 44.9097Z" fill="white"/>
</g>
</g>
<defs>
<filter id="filter0_d_2_1058" x="0" y="0" width="90" height="90" filterUnits="userSpaceOnUse" color-interpolation-filters="sRGB">
<feFlood flood-opacity="0" result="BackgroundImageFix"/>
<feColorMatrix in="SourceAlpha" type="matrix" values="0 0 0 0 0 0 0 0 0 0 0 0 0 0 0 0 0 0 127 0" result="hardAlpha"/>
<feOffset dy="10"/>
<feGaussianBlur stdDeviation="10"/>
<feColorMatrix type="matrix" values="0 0 0 0 0.290196 0 0 0 0 0.564706 0 0 0 0 0.854902 0 0 0 0.3 0"/>
<feBlend mode="normal" in2="BackgroundImageFix" result="effect1_dropShadow_2_1058"/>
<feBlend mode="normal" in="SourceGraphic" in2="effect1_dropShadow_2_1058" result="shape"/>
</filter>
<clipPath id="clip0_2_1058">
<rect width="25" height="25" fill="white" transform="translate(32.5 22.5)"/>
</clipPath>
</defs>
</svg>
